<svg xmlns="http://www.w3.org/2000/svg" width="56" height="68">
  <defs/>
  <g fill="#196AE5" fill-rule="nonzero" opacity=".745">
    <path d="M54.44 11.023h-.148C44.739 11.008 35.621 7.172 29.115.43a1.66 1.66 0 00-2.229 0C20.381 7.17 11.263 11.008 1.71 11.023h-.148c-.86.003-1.558.674-1.562 1.503v16.248C-.006 42.135 6.903 54.62 18.42 62.057l8.689 5.656c.26.18.57.279.891.285.324.016.642-.086.891-.285l8.69-5.656C49.097 54.62 56.006 42.135 56 28.773V12.455c-.062-.792-.736-1.41-1.56-1.432zM27.997 48.815c-8.86-.001-16.041-6.924-16.04-15.463.002-8.539 7.185-15.46 16.045-15.459 8.86.001 16.041 6.924 16.04 15.462-.015 8.534-7.19 15.447-16.045 15.46z"/>
    <path d="M33.073 26.863l-6.852 7.395-2.432-2.61a2.792 2.792 0 00-2.64-.802 2.746 2.746 0 00-2.026 1.849 2.687 2.687 0 00.614 2.65l4.495 4.785c.538.556 1.283.87 2.063.87.78 0 1.525-.314 2.063-.87l8.912-9.57a2.706 2.706 0 00-.147-3.842 2.997 2.997 0 00-4.05.145z"/>
  </g>
</svg>