<svg xmlns="http://www.w3.org/2000/svg" width="67" height="53">
  <defs/>
  <g fill="#196AE5" fill-rule="nonzero" opacity=".749">
    <path d="M25.877 15.433c.634 0 1.148-.582 1.148-1.3 0-.718-.514-1.3-1.148-1.3-.634 0-1.148.582-1.148 1.3.002.717.515 1.297 1.148 1.3zM24.729 22.831c0 .718.514 1.3 1.148 1.3.634 0 1.148-.582 1.148-1.3 0-.718-.514-1.3-1.148-1.3-.633.003-1.146.583-1.148 1.3zM33.545 33.115c.634 0 1.148-.582 1.148-1.3 0-.718-.514-1.3-1.148-1.3-.634 0-1.148.582-1.148 1.3.003.717.515 1.297 1.148 1.3zM41.492 30.515c-.634 0-1.148.582-1.148 1.3 0 .718.514 1.3 1.148 1.3.634 0 1.148-.582 1.148-1.3-.002-.717-.515-1.297-1.148-1.3zM34.693 22.831c0-.718-.514-1.3-1.148-1.3-.634 0-1.148.582-1.148 1.3 0 .718.514 1.3 1.148 1.3.633-.003 1.146-.583 1.148-1.3zM33.545 15.433c.634 0 1.148-.582 1.148-1.3 0-.718-.514-1.3-1.148-1.3-.634 0-1.148.582-1.148 1.3.007.715.517 1.292 1.148 1.3zM63.599 45.946H43.254c-.458.008-.826.432-.826.951-.002 1.568-1.12 2.84-2.504 2.852H26.646c-1.384-.012-2.502-1.284-2.504-2.852 0-.52-.369-.944-.828-.951H3.77c-1.012-.02-1.954.58-2.465 1.568a3.534 3.534 0 000 3.201c.511.989 1.453 1.588 2.465 1.568h59.814c.737.017 1.45-.3 1.98-.88.53-.58.835-1.374.846-2.209v-.063c0-1.759-1.258-3.184-2.811-3.185zM41.492 24.116c.634 0 1.148-.582 1.148-1.3 0-.718-.514-1.3-1.148-1.3-.634 0-1.148.582-1.148 1.3 0 .718.514 1.3 1.148 1.3z"/>
    <path d="M25.835 46.9c0 .52.367.943.825.951h13.278c.459-.008.826-.432.826-.951.002-1.568 1.12-2.84 2.504-2.852h19.393v-41.3C62.675 1.252 61.62.024 60.299 0H7.754c-.65-.014-1.28.268-1.744.783-.465.516-.728 1.221-.729 1.958v41.3h18.05c1.386.012 2.505 1.289 2.504 2.859zm-16.78-7.6V5.545c.001-.525.377-.95.84-.951h48.13c.464.001.84.426.84.951v33.747c0 .525-.376.95-.84.951H9.895c-.462-.003-.835-.428-.836-.951l-.004.008z"/>
    <path d="M10.738 38.183H57.19V6.496H10.738v31.687zm15.14-3.169c-1.562 0-2.827-1.433-2.827-3.2 0-1.767 1.265-3.2 2.826-3.2 1.56 0 2.826 1.433 2.826 3.2.002.85-.295 1.665-.826 2.265-.53.6-1.25.937-2 .935zM41.49 10.932c1.143 0 2.174.78 2.611 1.975.438 1.196.196 2.573-.612 3.488s-2.024 1.189-3.08.693c-1.056-.495-1.745-1.662-1.745-2.956-.001-.85.296-1.665.826-2.265.53-.6 1.25-.937 2-.935zm-9.374.444a2.538 2.538 0 012.828-.025c.879.566 1.423 1.621 1.425 2.766.004.471-.086.937-.265 1.363l4.002 4.563c.422-.27.9-.413 1.385-.412 1.564 0 2.833 1.43 2.84 3.2-.032 1.321-.751 2.496-1.832 2.994v2.994c1.081.498 1.8 1.673 1.832 2.994 0 1.767-1.265 3.2-2.826 3.2-1.56 0-2.825-1.433-2.825-3.2-.015-1.465.867-2.747 2.126-3.089v-2.8c-.727-.205-1.351-.73-1.735-1.46a3.552 3.552 0 01-.308-2.422c.047-.213.113-.42.196-.618l-3.987-4.531c-1.335.784-2.978.246-3.739-1.223-.76-1.469-.371-3.355.885-4.291l-.002-.003zm-6.27-.444c1.56 0 2.826 1.433 2.826 3.2.015 1.465-.868 2.747-2.127 3.089v2.5c1.514.431 2.433 2.167 2.057 3.882a3.157 3.157 0 01-.685 1.41l3.834 4.341c.32-.303.699-.52 1.105-.634v-2.8c-1.51-.442-2.419-2.187-2.028-3.898.39-1.711 1.93-2.74 3.441-2.299 1.511.442 2.42 2.186 2.031 3.897-.238 1.014-.897 1.835-1.766 2.2v2.994c1.438.592 2.198 2.372 1.716 4.016-.483 1.644-2.032 2.555-3.497 2.055-1.465-.5-2.313-2.228-1.913-3.9l-4.45-5.038c-1.536.319-3.012-.828-3.301-2.567a3.975 3.975 0 01-.042-.586c.032-1.321.752-2.496 1.833-2.994v-2.693c-1.081-.498-1.8-1.673-1.833-2.994-.005-.844.288-1.655.814-2.252.526-.597 1.242-.932 1.987-.929h-.002z"/>
    <path d="M41.492 15.433c.634 0 1.148-.582 1.148-1.3 0-.718-.514-1.3-1.148-1.3-.634 0-1.148.582-1.148 1.3.003.717.515 1.297 1.148 1.3zM25.877 30.515c-.634 0-1.148.582-1.148 1.3 0 .718.514 1.3 1.148 1.3.634 0 1.148-.582 1.148-1.3-.002-.717-.515-1.297-1.148-1.3z"/>
  </g>
</svg>