<svg xmlns="http://www.w3.org/2000/svg" width="63" height="63">
  <defs/>
  <path fill="#196AE5" fill-rule="nonzero" d="M62.768 31.078a3.741 3.741 0 01-7.237 1.332H32.483v6.3H42.3a3.742 3.742 0 110 2.663h-9.82v5.766h6.82l3.928 4.82h6.351a3.742 3.742 0 110 2.663h-7.616l-3.928-4.82h-5.552v5.346a7 7 0 11-13.994 0c0-.173.007-.34.02-.513A9.4 9.4 0 018.469 43.95v-.02a9.554 9.554 0 011.485-3.808l.013-.02c.007-.007.007-.013.013-.02.107-.16.22-.32.34-.473a7.354 7.354 0 01.48-.573l.02-.02a9.482 9.482 0 012.961-2.216l-.865-1.8a11.513 11.513 0 00-3.568 2.67c-.04.04-.073.08-.113.12-.33.376-.637.772-.919 1.185l-.013.02a.051.051 0 00-.013.027 2.752 2.752 0 00-.126.2c-.186.286-.353.586-.513.885-.16.299-.293.6-.419.912a10.763 10.763 0 01-5.073-16.631c.18.309.378.607.593.892.205.278.425.545.659.8.213.226.433.446.666.652l.02.02c.02.014.037.03.053.047l.04.033a9.663 9.663 0 006.344 2.37v-2a6.933 6.933 0 01-.985-.067 7.83 7.83 0 01-1.818-.459 7.75 7.75 0 01-2.257-1.365l-.08-.1-.067-.033a7.871 7.871 0 01-1.232-1.446 7.78 7.78 0 01-.473-.826 1.7 1.7 0 01-.073-.16c-.053-.113-.107-.226-.146-.34l-.013.007a9.709 9.709 0 014.847-11.578c.07.334.162.663.273.985l.14.379c.071.184.153.364.246.539a8 8 0 004.088 3.821l.766-1.844a5.994 5.994 0 01-2.983-2.7c-.1-.18-.187-.367-.26-.559a6.309 6.309 0 01-.373-1.385h-.014a7.423 7.423 0 01-.047-.859 8.038 8.038 0 018.027-8.02 7.957 7.957 0 013.655.879A6.132 6.132 0 0132.48 6.139v6.211h5.552l3.928-4.82h7.616a3.742 3.742 0 110 2.663h-6.348l-3.928 4.82h-6.817v5.766H42.3a3.742 3.742 0 110 2.663h-9.82v6.3h23.051a3.741 3.741 0 017.237 1.332v.004z" opacity=".75"/>
</svg>