<svg xmlns="http://www.w3.org/2000/svg" width="67" height="56">
  <defs/>
  <path fill="#196AE5" fill-rule="evenodd" d="M47.934 11.074h3.981c20.053 0 20.053 30.316 0 30.316h-2.466V30.103L39.222 19.881h-17.3a4.423 4.423 0 00-4.417 4.417V41.39h-5.573c-15.909 0-15.909-24.053 0-24.053h2.5a17.338 17.338 0 0133.505-6.262l-.003-.001zM21.922 22.419h16.253l8.735 8.735V53.28a1.884 1.884 0 01-1.879 1.879H21.922a1.884 1.884 0 01-1.879-1.879V24.298a1.884 1.884 0 011.879-1.879zm1.241 4.368h13.213v2.715H23.163v-2.715zm0 7.1h20.628v2.716H23.163v-2.716zm0 7.1h20.628v2.716H23.163v-2.716zm0 7.1h20.628v2.716H23.163v-2.716z" opacity=".749"/>
</svg>