<svg xmlns="http://www.w3.org/2000/svg" width="64" height="64">
  <defs/>
  <g fill="#196AE5" fill-rule="nonzero" opacity=".75">
    <path d="M28.455 5.596c-1.314.162-2.614.43-3.885.8-8.713-4.367-16.228-5.08-19.744-1.565C1.31 8.346 2.024 15.875 6.38 24.575a24.585 24.585 0 00-.8 3.9C-.766 17.404-1.81 7.876 3.018 3.022 7.846-1.832 17.386-.761 28.455 5.596z"/>
    <path d="M13.743 6.398a5.2 5.2 0 11-7.362 7.346 5.2 5.2 0 017.362-7.346zM57.307 13.748a5.2 5.2 0 110-7.35 5.211 5.211 0 010 7.35z"/>
    <path d="M58.122 28.473a24.149 24.149 0 00-.8-3.885c4.355-8.713 5.067-16.241 1.555-19.757-3.512-3.516-11.047-2.802-19.76 1.554a26.237 26.237 0 00-3.885-.79c11.069-6.356 20.597-7.413 25.45-2.573 4.828 4.854 3.783 14.382-2.56 25.451z"/>
    <g>
      <path d="M28.455 58.126c-7.651 4.4-19.308 8.7-25.437 2.573-4.828-4.853-3.784-14.381 2.56-25.45.16 1.32.428 2.624.8 3.9-4.356 8.7-5.07 16.228-1.554 19.744 3.516 3.516 11.031 2.8 19.744-1.567 1.272.37 2.572.638 3.887.8z"/>
      <path d="M6.381 49.974a5.2 5.2 0 110 7.35 5.225 5.225 0 010-7.35z"/>
    </g>
    <g>
      <path d="M31.85 37.43c6.951 0 11.805-2.889 11.878-5.507v-3.815c-3.07 2.483-7.951 3.435-11.885 3.435-3.986 0-8.828-.967-11.885-3.458v3.778c.006 2.633 4.887 5.567 11.892 5.567z"/>
      <path d="M31.844 28.996c3.973 0 11.9-1.653 11.9-5.58 0-2.633-4.886-5.566-11.9-5.566s-11.885 2.933-11.885 5.566 4.881 5.58 11.885 5.58zM31.85 39.977c-4.991 0-9.309-1.358-11.891-3.464v3.794c0 3.909 7.832 5.567 11.9 5.567 7 0 11.872-2.934 11.872-5.567v-3.786c-2.586 2.101-6.898 3.456-11.881 3.456z"/>
      <path d="M31.844 7.901C18.613 7.908 7.892 18.639 7.897 31.87 7.902 45.1 18.63 55.823 31.861 55.82c13.231-.002 23.956-10.729 23.956-23.96C55.8 18.63 45.075 7.911 31.844 7.901zm14.432 32.405c0 4.55-6.334 8.114-14.42 8.114-5.745 0-14.445-2.4-14.445-8.114V23.42c0-4.55 6.339-8.114 14.432-8.114 6.066 0 14.779 2.586 14.431 8.464.004 19.144.001-2.61.002 16.536z"/>
    </g>
    <g>
      <path d="M60.682 60.698c-6.129 6.129-17.783 1.824-25.45-2.573a26.247 26.247 0 003.885-.79c8.713 4.356 16.241 5.082 19.756 1.554 3.515-3.528 2.8-11.044-1.554-19.756.373-1.27.64-2.57.8-3.885 6.346 11.07 7.391 20.598 2.563 25.45z"/>
      <path d="M49.957 57.324a5.211 5.211 0 010-7.35 5.325 5.325 0 017.35 0 5.2 5.2 0 01-7.35 7.35z"/>
    </g>
  </g>
</svg>