<svg xmlns="http://www.w3.org/2000/svg" width="44" height="68">
  <defs/>
  <path fill="#196AE5" fill-rule="nonzero" d="M31.67 56.25v2.543a4.058 4.058 0 01-3.469 4.008l-.616 2.312a2.89 2.89 0 01-2.774 2.158h-6.317a2.806 2.806 0 01-2.774-2.158l-.619-2.312a4.129 4.129 0 01-3.467-4.007V56.25a2.434 2.434 0 012.467-2.465h15.1a2.434 2.434 0 012.469 2.465zM17.03 17.03a6.593 6.593 0 109.324 0 6.512 6.512 0 00-9.324 0zM21.501 0A21.692 21.692 0 006.011 36.68a19.9 19.9 0 015.317 10.788 3.634 3.634 0 003.544 3.005H28.28a3.634 3.634 0 003.544-3.005 20.16 20.16 0 015.317-10.788A21.634 21.634 0 0021.501.001zm14.022 23.888h-1.922a12.324 12.324 0 01-1.849 4.546l1.387 1.387c.462.5.462 1.272 0 1.772l-1.387 1.387c-.5.462-1.272.462-1.772 0l-1.31-1.31a11.287 11.287 0 01-4.551 1.931v1.926a1.3 1.3 0 01-1.31 1.31h-2a1.3 1.3 0 01-1.31-1.31v-1.854a12.082 12.082 0 01-4.623-1.926l-1.31 1.31c-.5.462-1.272.462-1.772 0l-1.393-1.387a1.306 1.306 0 010-1.772l1.31-1.31a11.605 11.605 0 01-1.926-4.623H7.937a1.3 1.3 0 01-1.31-1.31v-2a1.3 1.3 0 011.31-1.31h1.926a11.287 11.287 0 011.926-4.546l-1.31-1.31a1.306 1.306 0 010-1.772l1.387-1.387a1.306 1.306 0 011.772 0l1.387 1.387a12.324 12.324 0 014.546-1.849V7.937a1.3 1.3 0 011.31-1.31h2a1.3 1.3 0 011.31 1.31v1.926c1.624.305 3.17.934 4.546 1.849l1.387-1.387a1.306 1.306 0 011.772 0l1.387 1.387c.462.5.462 1.272 0 1.772l-1.382 1.388a12.477 12.477 0 011.926 4.546h1.926a1.3 1.3 0 011.31 1.31v2a1.948 1.948 0 01-1.54 1.16z" opacity=".753"/>
</svg>